.
..............................Site Info...........................

 -   http://www.scenetime.com  *_*    

Scenetime .Always on time . friendly online private torrent community ..

     We care to share . Join us on  http://www.scenetime.com 

    Be the first to get new release at  http://www.scenetime.com

        Seed back for speed


...................................NFO:.................................................General
Unique ID                                : 107863021975380277318148828443039099796 (0x5125A9927C67BE3370823841D529EB94)
Complete name                            : I:UPNicolas Cage Collection part 11983.Valley.Girl.DVDRip.XviD.by.Waldek.for.SceneTime1983.Valley.Girl.DVDRip.XviD.by.Waldek.for.SceneTime.mkv
Format                                   : Matroska
Format version                           : Version 1
File size                                : 1.20 GiB
Duration                                 : 1h 39mn
Overall bit rate                         : 1 722 Kbps
Encoded date                             : UTC 2012-03-28 04:46:53
Writing application                      : VirtualDubMod 1.5.4.1 (build 2178/release)
Writing library                          : libebml-0.5.1 & libmatroska-0.5.1

Video
ID                                       : 1
Format                                   : MPEG-4 Visual
Format profile                           : Advanced Simple@L5
Format settings, BVOP                    : Yes
Format settings, QPel                    : No
Format settings, GMC                     : No warppoints
Format settings, Matrix                  : Default (H.263)
Codec ID                                 : XVID
Codec ID/Hint                            : XviD
Duration                                 : 1h 39mn
Bit rate                                 : 1 575 Kbps
Width                                    : 640 pixels
Height                                   : 352 pixels
Display aspect ratio                     : 16:9
Frame rate                               : 29.970 fps
Color space                              : YUV
Chroma subsampling                       : 4:2:0
Bit depth                                : 8 bits
Scan type                                : Progressive
Compression mode                         : Lossy
Bits/(Pixel*Frame)                       : 0.233
Stream size                              : 1.09 GiB (92%)
Writing library                          : XviD 1.1.2 (UTC 2006-11-01)
Language                                 : English
Default                                  : Yes
Forced                                   : No

Audio
ID                                       : 2
Format                                   : AC-3
Format/Info                              : Audio Coding 3
Mode extension                           : CM (complete main)
Format settings, Endianness              : Big
Codec ID                                 : 2000
Duration                                 : 1h 39mn
Bit rate mode                            : Constant
Bit rate                                 : 112 Kbps
Channel(s)                               : 2 channels
Channel positions                        : Front: L R
Sampling rate                            : 48.0 KHz
Bit depth                                : 16 bits
Compression mode                         : Lossy
Stream size                              : 79.7 MiB (7%)
Language                                 : English
Default                                  : Yes
Forced                                   : No